<svg width="740" height="424" viewBox="0 0 740 424" fill="none" xmlns="http://www.w3.org/2000/svg">
<path d="M369.937 0.857178C234.679 0.857178 129.313 81.4507 0 212.25C111.312 324.057 204.787 423.643 369.937 423.643C534.923 423.643 656.309 297.468 739.875 214.562C654.327 117.454 533.106 0.857178 369.937 0.857178ZM369.937 363.033C288.353 363.033 221.962 295.321 221.962 212.25C221.962 129.014 288.353 61.4675 369.937 61.4675C451.522 61.4675 517.912 129.179 517.912 212.25C517.912 295.486 451.522 363.033 369.937 363.033Z" fill="#C62828"/>
<path d="M369.931 159.402C369.931 146.355 374.721 134.464 382.483 125.215C378.354 124.555 374.225 124.224 369.931 124.224C322.368 124.224 283.558 163.696 283.558 212.25C283.558 260.804 322.368 300.275 369.931 300.275C417.495 300.275 456.305 260.804 456.305 212.25C456.305 208.451 455.975 204.653 455.645 200.854C446.561 207.956 435.331 212.25 422.945 212.25C393.548 212.25 369.931 188.633 369.931 159.402Z" fill="#C62828"/>
</svg>
